<svg xmlns="http://www.w3.org/2000/svg" viewBox="0 0 1459.47 1075.7"><defs><style>.cls-1{isolation:isolate;}.cls-2,.cls-5{fill:#e6e6ff;}.cls-2{opacity:0.4;}.cls-3{fill:#fff;}.cls-4{fill:#3c4eba;}.cls-6,.cls-9{fill:#7e89fd;}.cls-7{fill:#ccccfe;}.cls-8{fill:#f9ca7a;}.cls-9{opacity:0.3;mix-blend-mode:multiply;}.cls-10{fill:#c67c63;}.cls-11{fill:#ffe1b6;}</style></defs><g class="cls-1"><g id="Layer_2" data-name="Layer 2"><g id="Layer_1-2" data-name="Layer 1"><circle class="cls-2" cx="332.77" cy="679.02" r="332.77"/><path class="cls-2" d="M989.6,939.75A470,470,0,0,1,806.68,37a470,470,0,0,1,365.84,865.83A466.91,466.91,0,0,1,989.6,939.75Zm0-782.84c-172.57,0-313,140.4-313,313s140.4,313,313,313,313-140.39,313-313S1162.17,156.91,989.6,156.91Z"/><rect class="cls-3" x="58.78" y="1063.93" width="1226.51" height="11.77"/><path class="cls-4" d="M1148.57,397.49a34.88,34.88,0,0,1,34.88,34.87V980.82a83.14,83.14,0,0,1-83.36,83.11c-46-.14-82.86-38.35-82.86-84.36V397.49Z"/><path class="cls-3" d="M1004.56,1037.33H427.45a69.28,69.28,0,0,1-69.21-69.2v-802a69.29,69.29,0,0,1,69.21-69.21h577.11a69.28,69.28,0,0,1,69.2,69.21V968.13A69.27,69.27,0,0,1,1004.56,1037.33Zm-577.11-931a59.83,59.83,0,0,0-59.77,59.77V968.13a59.83,59.83,0,0,0,59.77,59.77h577.11a59.84,59.84,0,0,0,59.77-59.77v-802a59.84,59.84,0,0,0-59.77-59.77Z"/><path class="cls-3" d="M1100.35,1063.93H394.89a83.13,83.13,0,0,1-83.11-83.12V202.13a44.82,44.82,0,0,1,44.81-44.83H972.41a44.82,44.82,0,0,1,44.82,44.83V980.81A83.11,83.11,0,0,0,1100.35,1063.93Z"/><rect class="cls-5" x="338.77" y="215.75" width="650.83" height="211.82" rx="21.58"/><path class="cls-6" d="M538,267V376.33H516.1l-42.79-73.86c.05,1.87.1,3.1.16,3.68a43.78,43.78,0,0,1,.32,4.73v65.45h-20V267h27.61l37.2,64.49q-.48-4.82-.48-7.29V267Z"/><path class="cls-6" d="M638,287.81H586v22.43h40.94v20.59H586V354.7H638v21.63H559.91V267H638Z"/><path class="cls-6" d="M784.64,267,757.17,376.33H732L714,304l-17.36,72.34h-25L643.55,267h26.14l15.08,66.73c.05.32.35,1.5.88,3.53.22.75.51,1.87.89,3.36L704.45,267h23.63l18.38,73.62c.38-1.39.91-3.68,1.6-6.89L763.57,267Z"/><path class="cls-6" d="M871.57,291l-21.8,7.29q-4.39-13-18.62-13-15.18,0-15.19,9.86a8.89,8.89,0,0,0,2.84,6.65q2.85,2.71,12.84,4.73,16.73,3.38,24.49,6.82a31.3,31.3,0,0,1,13.08,11.09,29.24,29.24,0,0,1,5.32,17.1q0,14.82-11.41,25.63T829.3,378q-16.8,0-28.61-7.65t-15.57-22.72l23.71-5.37q4,15.32,22.23,15.31,8.79,0,13.11-3.41t4.32-8.13a8.48,8.48,0,0,0-3.92-7.45q-3.92-2.64-15.12-5-20.88-4.33-29.76-11.82t-8.88-21.91a32.48,32.48,0,0,1,10.6-24.59q10.61-10,28.78-10Q862.35,265.29,871.57,291Z"/><path class="cls-5" d="M966.53,477V657.26a7.1,7.1,0,0,1-7.13,7.07H779.19a7.12,7.12,0,0,1-7.12-7.07V477a7.16,7.16,0,0,1,7.12-7.12H959.4A7.14,7.14,0,0,1,966.53,477Z"/><path class="cls-7" d="M966.53,567.1v90.16a7.1,7.1,0,0,1-7.13,7.07H779.19a7.14,7.14,0,0,1-7.12-7.12V641.77l58.08-54.54a17.18,17.18,0,0,1,23.62.08l7.56,7.2a9.7,9.7,0,0,0,14.5-1.26l35.28-47.77a17.19,17.19,0,0,1,24.61-3.17Z"/><circle class="cls-3" cx="853.7" cy="526.94" r="23.4"/><rect class="cls-8" x="366.88" y="464.65" width="173.91" height="33.67" rx="16.83"/><path class="cls-8" d="M713.68,729.68H573.43a16.84,16.84,0,0,1-16.83-16.83h0A16.84,16.84,0,0,1,573.43,696H713.68a16.84,16.84,0,0,1,16.83,16.84h0A16.84,16.84,0,0,1,713.68,729.68Z"/><path class="cls-5" d="M733,555.37H383.72a16.83,16.83,0,0,1-16.84-16.83h0a16.83,16.83,0,0,1,16.84-16.83H733a16.82,16.82,0,0,1,16.83,16.83h0A16.82,16.82,0,0,1,733,555.37Z"/><path class="cls-5" d="M733,612.44H383.72a16.84,16.84,0,0,1-16.84-16.84h0a16.84,16.84,0,0,1,16.84-16.83H733a16.83,16.83,0,0,1,16.83,16.83h0A16.83,16.83,0,0,1,733,612.44Z"/><path class="cls-5" d="M733,669.5H383.72a16.84,16.84,0,0,1-16.84-16.83h0a16.84,16.84,0,0,1,16.84-16.84H733a16.83,16.83,0,0,1,16.83,16.84h0A16.83,16.83,0,0,1,733,669.5Z"/><rect class="cls-5" x="556.6" y="749.63" width="286.55" height="33.67" rx="16.83"/><rect class="cls-5" x="366.88" y="883" width="591.33" height="33.67" rx="16.83"/><path class="cls-5" d="M941.38,981.28H383.72a16.84,16.84,0,0,1-16.84-16.84h0a16.84,16.84,0,0,1,16.84-16.83H941.38a16.83,16.83,0,0,1,16.83,16.83h0A16.83,16.83,0,0,1,941.38,981.28Z"/><path class="cls-5" d="M941.38,840.69h-368a16.84,16.84,0,0,1-16.83-16.83h0A16.84,16.84,0,0,1,573.43,807h368a16.83,16.83,0,0,1,16.83,16.84h0A16.83,16.83,0,0,1,941.38,840.69Z"/><rect class="cls-5" x="371.19" y="692.9" width="168.4" height="159.16" rx="5.73"/><path class="cls-7" d="M503.76,834.82c0-.29,0-.57,0-.86,0-29.61-21.58-53.63-48.3-53.67S407.05,804.2,407,833.81c0,.34,0,.67,0,1Z"/><ellipse class="cls-9" cx="455.5" cy="766.46" rx="37.83" ry="20.18" transform="translate(-311.65 1220.8) rotate(-89.91)"/><ellipse class="cls-7" cx="455.52" cy="755.16" rx="37.03" ry="29.07" transform="matrix(0, -1, 1, 0, -300.29, 1209.6)"/><polygon class="cls-9" points="514.29 692.89 583.6 1063.93 400.54 1063.93 400.54 687.27 514.29 692.89"/><path class="cls-8" d="M477.1,703.34,466.77,809.4,452.31,957.87,444.6,1037c-1.49,15.29-13.41,26.9-27.63,26.9H216.28c-14.21,0-26.14-11.61-27.63-26.9l-7.72-79.16L166.49,809.4,156.16,703.34Z"/><polygon class="cls-3" points="466.77 809.4 452.31 957.87 180.93 957.87 166.49 809.4 466.77 809.4"/><path class="cls-7" d="M321.18,898.86A54.17,54.17,0,0,0,317,894c-1.36-1.39-3.34-3.2-5-5.13a52.73,52.73,0,0,1-12.55-28,51.31,51.31,0,0,1,.26-15.41c.3-1.57.63-3.12,1-4.64.66-2.93-2.23-5.38-4.66-3.91l0,0c-15.73,9.72-21.84,35.29-13.57,60.15,8,24,26.8,39.33,44.17,37.25,3.86-.46,6.57-4.34,6.19-8.51a18.8,18.8,0,0,0-.43-2.85A62.58,62.58,0,0,0,328,910.06,59.61,59.61,0,0,0,321.18,898.86Z"/><path class="cls-7" d="M311.42,833c-4.31-.22-7.84,3.69-7.62,8.35.07,1.48.14,3,.22,4.4a64.21,64.21,0,0,0,2.18,13.55,58.34,58.34,0,0,0,12.24,22.92c1.38,1.64,2.83,3,4.7,5a52.55,52.55,0,0,1,4.73,6,50.13,50.13,0,0,1,6.57,14,51.08,51.08,0,0,1,2.23,15.24c0,.57,0,1.14-.05,1.71a3.23,3.23,0,0,0,5.39,2.74c12.21-11.51,16.34-34.29,8.94-56.53C343.65,848.48,327.4,833.87,311.42,833Z"/><path class="cls-8" d="M514.33,680.28v25.21c0,10.55-7.91,19.11-17.66,19.11H136.58c-9.75,0-17.65-8.56-17.65-19.11V680.28c0-.42,0-.83,0-1.26.6-9.95,8.25-17.84,17.61-17.84H496.67c9.36,0,17,7.89,17.62,17.84C514.32,679.45,514.33,679.86,514.33,680.28Z"/><polygon class="cls-10" points="158.23 724.6 160.85 751.51 468.54 791.3 475.03 724.6 158.23 724.6"/><path class="cls-11" d="M514.29,679H119c.6-9.95,8.25-17.84,17.61-17.84H496.67C506,661.18,513.69,669.07,514.29,679Z"/><path class="cls-9" d="M854.93,894.26A89.64,89.64,0,0,0,769.41,958a68.07,68.07,0,0,0-74.2.14,89.62,89.62,0,0,0-85.77-63.44,88.53,88.53,0,0,0-41.19,10.16,89.45,89.45,0,0,0,.73,159.05h81.21c1.55-.78,3.08-1.63,4.59-2.51a86.13,86.13,0,0,0,9.55-6.42,87.28,87.28,0,0,0,9.69-8.76,89.18,89.18,0,0,0,24.48-51.88l33.24-.07,34.49-.07A89.34,89.34,0,0,0,790.91,1046a87.59,87.59,0,0,0,9.73,8.74,89.56,89.56,0,0,0,9.58,6.44q2.55,1.5,5.19,2.8h79.4a89.48,89.48,0,0,0-39.88-169.67ZM572.27,926.4a68.79,68.79,0,0,1,105.34,47.15v.07s0,.09,0,.13l-74.79.14-21.68,0-39.64.08A69.06,69.06,0,0,1,572.27,926.4Zm92.9,98.32a69,69,0,0,1-11.68,12.47A68.24,68.24,0,0,1,609.74,1053a68.74,68.74,0,0,1-68.18-58.38l21.38,0a31.82,31.82,0,0,0-4.21,16.36,10.33,10.33,0,0,0,20.65,0c0-5.13,2.85-8.67,6.62-11.11,6.55-4.26,15.8-5.17,17.27-5.29l74.43-.15A67.28,67.28,0,0,1,665.17,1024.72Zm44.07-51a46.16,46.16,0,0,1,46.18-.1Zm77.82-.29v-.07a68.83,68.83,0,0,1,136.07-.05l-62.74.12-73.35.14S787.05,973.46,787.06,973.41Zm68.16,79.17a68.23,68.23,0,0,1-43.81-15.68,69.08,69.08,0,0,1-11.73-12.43,67.41,67.41,0,0,1-12.63-30.28l73-.14c2.3.19,23.93,2.27,24,16.32a10.33,10.33,0,1,0,20.66,0A31.86,31.86,0,0,0,900.37,994l22.8,0A68.86,68.86,0,0,1,855.22,1052.58Z"/><path class="cls-8" d="M838.58,883.64a89.65,89.65,0,0,0-85.51,63.76,68.09,68.09,0,0,0-74.21.14,89.48,89.48,0,1,0-95.52,115,89.35,89.35,0,0,0,55.09-11.72,85.32,85.32,0,0,0,9.56-6.42,87.28,87.28,0,0,0,9.69-8.76,89.31,89.31,0,0,0,24.48-51.88l33.23-.07,34.5-.06a89.45,89.45,0,0,0,24.67,51.73,90.38,90.38,0,0,0,9.73,8.73,92.35,92.35,0,0,0,9.59,6.45,89.47,89.47,0,1,0,44.7-166.88ZM555.92,915.78a68.8,68.8,0,0,1,105.34,47.15V963a.61.61,0,0,0,0,.13l-74.8.14-21.68,0-39.63.08A69,69,0,0,1,555.92,915.78Zm92.91,98.32a69.06,69.06,0,0,1-11.68,12.47,68.13,68.13,0,0,1-43.75,15.85A68.72,68.72,0,0,1,525.22,984l21.38,0a31.73,31.73,0,0,0-4.21,16.36,10.32,10.32,0,1,0,20.64,0c0-5.13,2.86-8.67,6.62-11.1,6.55-4.27,15.81-5.18,17.27-5.3l74.43-.14A67.34,67.34,0,0,1,648.83,1014.1Zm44.06-51a46.15,46.15,0,0,1,46.19-.09Zm77.83-.29v-.07a68.83,68.83,0,0,1,136.07-.05l-62.74.12-73.36.14A.7.7,0,0,0,770.72,962.79ZM838.87,1042a68.19,68.19,0,0,1-43.8-15.67,69.12,69.12,0,0,1-11.73-12.44,67.3,67.3,0,0,1-12.63-30.28l73-.13c2.3.18,23.93,2.26,24,16.32a10.33,10.33,0,0,0,20.66,0A32,32,0,0,0,884,983.37l22.81,0A68.87,68.87,0,0,1,838.87,1042Z"/><path class="cls-10" d="M583.34,1062.52a89.46,89.46,0,0,1-31.43-168.26l4,21.52a69,69,0,0,0-30.74,47.61l39.63-.08,4.84,25.91c-3.76,2.43-6.63,6-6.62,11.1a10.32,10.32,0,1,1-20.64,0A31.73,31.73,0,0,1,546.6,984l-21.38,0a69,69,0,0,0,54.09,57Z"/><path class="cls-3" d="M125.63,356.83,23.84,447.71A7.83,7.83,0,0,0,26.61,461l129.6,42.71a7.83,7.83,0,0,0,10.11-9L138.5,361.07A7.82,7.82,0,0,0,125.63,356.83Z"/><path class="cls-8" d="M1383.76,470.34a390.92,390.92,0,0,1-17,114.62l-125.52-38.29A261.33,261.33,0,0,0,1186.81,297l98.29-87a391.71,391.71,0,0,1,98.66,260.32Z"/></g></g></g></svg>