<svg xmlns="http://www.w3.org/2000/svg" viewBox="0 0 188.14 138.76"><defs><style>.cls-1{fill:#f6b05a;}.cls-2{fill:#f22e57;}.cls-3{fill:#fcc36c;}.cls-4{fill:#2f2334;}.cls-5{fill:#82baf8;}.cls-6{fill:#ff4c77;}.cls-7{fill:#3e3282;}.cls-8{fill:#b2ddf3;}.cls-9{fill:#fff;}.cls-10{fill:#f8c1e0;}.cls-11{fill:#80b5e7;}.cls-12{fill:#abaaea;}.cls-13{fill:#9a9afa;}.cls-14{fill:#d5e2f5;}</style></defs><g id="Layer_2" data-name="Layer 2"><g id="Ñëîé_1" data-name="Ñëîé 1"><path class="cls-1" d="M56,108.79a11,11,0,0,1-4.26,2.56,4.67,4.67,0,0,1-2.35.21,5.05,5.05,0,0,1-2.9-2.19c-2.25-3-4.91-8.94-5.86-11.13-.11-.24-.22-.5-.34-.78a9.28,9.28,0,0,1-.45-1.22c-.3-1.29-.14-3.19.86-3.62a1,1,0,0,1,.24-.07l1,5.6a.65.65,0,0,0,.77.53l.84.16c3.52,6.39,5.73,7.73,7.15,7.47.76-.14,1.2-.71,3.73-4.73.15.5.31.86.33.93A25.52,25.52,0,0,1,56,108.79Z"/><path class="cls-2" d="M55.48,119.92a26.86,26.86,0,0,1-1.81,3.29,25.64,25.64,0,0,1-2.55,3.41,8.19,8.19,0,0,1-3.4,2.08L45,126.87c-5.13-3.49-6.41-4.37-8.26-4.14s-2.65,1.21-7.66,6.39l-1.67,1.72-9.3.46q2.94-3.77,5.89-7.51a65.48,65.48,0,0,1,4.33-5.07c3.37-3.55,5.29-5.28,8-5.84,1.13-.24,2.77-.33,11,3.27C50.76,117.6,53.51,118.93,55.48,119.92Z"/><path class="cls-3" d="M4.88,135c0,1.19,0,2.38-.07,3.58H.32a.32.32,0,0,1-.32-.33V129a.31.31,0,0,1,.25-.32.34.34,0,0,1,.37.18c.27.55,1.32,3,1.68,3.91s.6,1.5,1.13,1.85A2.63,2.63,0,0,0,4.88,135Z"/><path class="cls-4" d="M.32,138.55a.32.32,0,0,1-.32-.33V129a.33.33,0,0,1,.25-.32.34.34,0,0,1,.37.18c.28.55,1.32,3,1.68,3.91a.43.43,0,0,1,.05.12v5.67Z"/><path class="cls-4" d="M58.66,89.25C58,90.64,57.38,92,56.74,93.42c0,0,0,.07-.05.1s-.11.21-.16.31c-.15.29-.3.57-.45.83-.54-1.1.22-1.74-.07-3.24-.33-1.75-1.55-1.82-2.12-3.5a3.09,3.09,0,0,1-.1-1.75,3.27,3.27,0,0,0,1.47,1.21,2.7,2.7,0,0,0,1.38,0,2.39,2.39,0,0,0,1.2-.91,12.24,12.24,0,0,1,.82,2.78Z"/><path class="cls-5" d="M70.76,119.87H55.5a42.23,42.23,0,0,0,.66-7.36c0-1.37,0-2.61-.15-3.73a25.52,25.52,0,0,0-1.21-6.28c0-.07-.18-.43-.33-.93,0,0,0,0,0-.07-.16-.52-.25-.94-.39-1.51-.35-1.45.59-2.74,2-5.34.15-.26.3-.54.45-.83,0-.1.11-.2.16-.31a4,4,0,0,0,.44-.24,6.77,6.77,0,0,0,.88-.61l.23-.19a6.18,6.18,0,0,0,.71-.73l.09-.1a7.15,7.15,0,0,0,1.3-2.48,8,8,0,0,0,1.31,3.21,2.52,2.52,0,0,0,.21.25,4.83,4.83,0,0,0,2,1.41,7.3,7.3,0,0,1,3.31,2,6.34,6.34,0,0,1,.65.9l0,.06A38.46,38.46,0,0,1,70.76,119.87Z"/><path class="cls-3" d="M60.28,88.7a4.66,4.66,0,0,0,.06.47A7.14,7.14,0,0,1,59,91.65a7.22,7.22,0,0,1-2.35,1.87c.34-.73,1.66-3.58,2-4.27a12.24,12.24,0,0,0-.82-2.78,2.39,2.39,0,0,1-1.2.91,2.7,2.7,0,0,1-1.38,0,3.24,3.24,0,0,1-1.45-1.18,10.21,10.21,0,0,1-2.11-7.38A7.54,7.54,0,0,0,54.8,81c1.58.59,3.2.64,4.07,0a1.46,1.46,0,0,1,1-.45,1,1,0,0,1,.76,1,1,1,0,0,1-.36.84.82.82,0,0,1-.51.18c-.24,0-.46-.06-.59.07-.39.37.69,1.51,1.09,3.24C60.56,87.09,60.15,87.4,60.28,88.7Z"/><path class="cls-6" d="M66.5,134.69c-3.19,2.91-7.25,3.23-9.38,3.37-17.68,1.16-49.82.54-52.31.49,0-1.87.07-3.75.11-5.62,3-.52,7.61-1.19,13.23-1.63,4-.32,7.16-.41,9.3-.46,6.33-.17,15.29-.15,20.27-2.14a10.81,10.81,0,0,0,3.4-2.08,25.64,25.64,0,0,0,2.55-3.41,26.86,26.86,0,0,0,1.81-3.29c5.1,0,10.19,0,15.28,0C71,123,71.26,130.33,66.5,134.69Z"/><path class="cls-7" d="M46,98.43a.66.66,0,0,1-.53.77l-2.88-.52a.61.61,0,0,1-.35-.11.67.67,0,0,1-.27-.42l-.35-1.9L41,92.55s-.11-.62-.11-.62a.67.67,0,0,1,.11-.49.62.62,0,0,1,.38-.24l3,.48a.62.62,0,0,1,.29.11.68.68,0,0,1,.27.43Z"/><path class="cls-3" d="M66.22,96.3c-.43-1-1.52-2.16-2.61-2.08-1.39.1-2,2.14-4,6.23-3.1,6.49-3.75,7.33-4.62,7.42s-2.17-1.25-4.5-3.94c-1.84-2.12-1.57-2.39-3.38-4.88A6.39,6.39,0,0,1,46,96.57c0-.14,0-.27-.06-.51a2.49,2.49,0,0,0-.15-.85,1.23,1.23,0,0,0-.47-.51l.15.73a.38.38,0,0,1-.23,0c-.57-.23-.14-1.68-.77-2.14a1.15,1.15,0,0,0-1.21.07c-.91.59-.75,2.49-.23,3.71a6.27,6.27,0,0,0,.64,1.13c2,2.57,3.09,7.57,7.12,12.85.94,1.22,2.09,2.53,3.76,2.71a4.2,4.2,0,0,0,2.06-.34c3.88-1.59,6.27-6.76,9-12.9C66.19,99.3,66.84,97.78,66.22,96.3Z"/><path class="cls-4" d="M70,95a7.78,7.78,0,0,1-1.56,3.22A6.75,6.75,0,0,0,67.9,97l0-.06a6.34,6.34,0,0,0-.65-.9c-1.91-2.18-4-1.48-5.57-3.65a8,8,0,0,1-1.31-3.21,4.66,4.66,0,0,1-.06-.47c-.13-1.29.28-1.6,0-2.93-.39-1.73-1.48-2.88-1.1-3.25.22-.22.69.1,1.11-.24a1,1,0,0,0-.4-1.8.82.82,0,0,0-.27,0,2.16,2.16,0,0,0-.73.43c-1.5,1.17-5.25.2-7.17-2.1-.41-.48-.62-.73-.65-1.14-.1-1.22,1.67-2.65,3.88-3.34a8,8,0,0,1,1.2-.28,7.4,7.4,0,0,1,3.55.21,2.74,2.74,0,0,1,3.16-1.36c1.25.45,2.07,2.13,1.47,3a1.61,1.61,0,0,1-1.14.57A7.88,7.88,0,0,1,64.51,79c.53,1.53.14,1.89.6,3,.67,1.68,1.7,1.35,2.59,3s.26,2.35.57,3.45a8.07,8.07,0,0,0,.46.93c.71,1.4,1,1.68,1.2,2.18A5.34,5.34,0,0,1,70,95Z"/><path class="cls-1" d="M42,95.29a4.49,4.49,0,0,0-.37,1L41,92.55a.49.49,0,0,1,.29,0A1.19,1.19,0,0,1,42,93C42.62,93.75,42.05,95.14,42,95.29Z"/><path class="cls-8" d="M172.05,89.06a85.33,85.33,0,0,1-35.84,38.2,85.27,85.27,0,0,1,6.43-52c2.54-5.41,12.92-26.1,35.84-38.2A85.27,85.27,0,0,1,172.05,89.06Z"/><path class="cls-9" d="M143.48,110.51,136,126.36c.06.32.11.62.17.9l.69-.39,3.36-7.14,13-4.92c.61-.57,1.21-1.15,1.82-1.76l-14.25,5.38,9.49-20.21L171.59,90c.15-.31.31-.61.46-.93.06-.12.11-.25.17-.38L151,96.91l10.7-22.78,17.39-8.38c.06-.4.11-.8.16-1.19L162.35,72.7,178.65,38c-.06-.33-.11-.64-.17-.92l-.68.37L166.3,61.94l-2.2-15-.9.78,2.33,15.86L155.05,85.89,149.19,63.8l-.74,1.11,5.92,22.31.07,0-10.27,21.85-5.51-23.59c-.2.64-.4,1.28-.58,1.91Z"/><path class="cls-10" d="M169.53,122.29a61.74,61.74,0,0,1-33.91,16,62.75,62.75,0,0,1,17.92-34.14c3.15-3.07,15.67-14.63,34.6-17A62,62,0,0,1,169.53,122.29Z"/><path class="cls-9" d="M153,122.15l17-.27,1-1-17,.26,18.06-17.78,11.59-1.06c.16-.35.31-.7.45-1l-10.92,1,14.89-14.66c0-.17.05-.33.08-.49l-1.2.19-6.45,6.35,1.12-5.3-1.08.29L179.2,94.9l-17.58,17.31,1.5-15.72-1.08.72-1.52,16h.07l-17.2,16.95,2-16.35c-.43.64-.85,1.28-1.24,1.92l-1.95,15.56-6.53,6.43c0,.18-.06.36-.09.52.76-.1,1.73-.24,2.86-.44H137Z"/><path class="cls-11" d="M176.23,127.4a1.61,1.61,0,0,0-.83-1.32c-1.66-.87-5,2.47-6,3.52a26,26,0,0,1-3.31.7l-.4.06a5.56,5.56,0,0,0,3.15-2.22c.24-.39.77-1.23.42-1.77a1.69,1.69,0,0,0-2.13-.17c-.86.6-2.57,3.51-3.06,4.35-1.41.12-2.59.13-4,.19a4.7,4.7,0,0,0,1.73-1.09c.86-.81,2.11-2,1.75-3a1.7,1.7,0,0,0-1.17-1c-.74-.17-1.19.16-1.53.87a3.73,3.73,0,0,0-.32,1.55A4,4,0,0,1,159,130.8c-.8,0-1.87.12-3,.25a4.3,4.3,0,0,0,2.82-2.44,2.22,2.22,0,0,0-.07-2,1.46,1.46,0,0,0-1.45-.6,1.07,1.07,0,0,0-.53.32c-1.11,1.13.46,2.93-2,4.88a20,20,0,0,0-2,.39c-.37.1-.73.2-1.09.32a6.32,6.32,0,0,0,2.21-1.92,2.55,2.55,0,0,0,.74-1.64c0-.94-.55-1.35-1.48-.88a3.36,3.36,0,0,0-1.27,1.85,16.07,16.07,0,0,1-1.35,3,20.6,20.6,0,0,0-6.55,4.51c-.15.15.07.38.22.23a20.66,20.66,0,0,1,4.89-3.69c2.32,1,1.82,2.47,2.72,3a1.22,1.22,0,0,0,1.25-.05c.52-.41.32-1.26.3-1.36a3.31,3.31,0,0,0-3.58-1.9,18.93,18.93,0,0,1,5-1.55,18.51,18.51,0,0,1,2.18,3.33c.52.77.9,1.31,1.38,1.27a1,1,0,0,0,.79-.62c.5-1.11-1.2-2.74-1.75-3.28a3.3,3.3,0,0,0-1.36-.88c1-.12,2-.19,3-.24a9.3,9.3,0,0,1,1.92,2.6c.38.8.58,1.52,1.2,1.71a1.22,1.22,0,0,0,1.29-.41c.49-.72-.36-2-.92-2.66a4.09,4.09,0,0,0-1.89-1.3c1.18,0,2.37-.08,3.56-.17a6,6,0,0,0,3.53,2.86c.4.09,2,.49,2.61-.33a1.5,1.5,0,0,0-.21-1.8c-.79-.76-2.41.44-5.05-.8a23.84,23.84,0,0,0,4.55-.87,8,8,0,0,0,4.67-.58C174.83,129,176.21,128.38,176.23,127.4Z"/><rect class="cls-7" x="70.76" width="78.95" height="138.55" rx="6.94"/><path class="cls-9" d="M146.41,11.07V126.12a3.76,3.76,0,0,1-3.69,3.8h-65a3.76,3.76,0,0,1-3.69-3.8v-115a3.76,3.76,0,0,1,3.69-3.81h65A3.77,3.77,0,0,1,146.41,11.07Z"/><path class="cls-12" d="M120.73,4.8h-21a.8.8,0,1,1,0-1.6h21a.8.8,0,0,1,0,1.6Z"/><path class="cls-12" d="M97.11,4a1.29,1.29,0,1,1-1.29-1.29A1.29,1.29,0,0,1,97.11,4Z"/><path class="cls-12" d="M125.94,4a1.29,1.29,0,1,1-1.29-1.29A1.29,1.29,0,0,1,125.94,4Z"/><path class="cls-13" d="M146.41,11.07v1.58H74.06V11.07a3.76,3.76,0,0,1,3.69-3.81h65A3.77,3.77,0,0,1,146.41,11.07Z"/><rect class="cls-9" x="129.66" y="10.48" width="0.99" height="1.32"/><rect class="cls-9" x="131.3" y="9.81" width="0.99" height="1.99"/><rect class="cls-9" x="132.93" y="9.1" width="0.99" height="2.7"/><rect class="cls-9" x="134.56" y="8.39" width="0.99" height="3.41"/><polygon class="cls-9" points="138.76 8.99 138.76 9.49 137.96 9.49 137.96 10.7 138.76 10.7 138.76 11.21 143.44 11.21 143.44 8.99 138.76 8.99"/><rect class="cls-12" x="101.64" y="131.87" width="17.2" height="4.49" rx="2.21"/><rect class="cls-14" x="81.73" y="109.36" width="56.57" height="1.62"/><rect class="cls-14" x="81.73" y="115.86" width="56.57" height="1.62"/><rect class="cls-14" x="81.73" y="122.35" width="56.57" height="1.62"/><path class="cls-14" d="M41.7,62.52H11.25A4.46,4.46,0,0,0,6.81,67v9.71a4.46,4.46,0,0,0,4.44,4.44H35.32l4,4a.81.81,0,0,0,1.37-.57V81.11h1a4.46,4.46,0,0,0,4.45-4.44V67A4.46,4.46,0,0,0,41.7,62.52Z"/><rect class="cls-9" x="11.45" y="67.6" width="30.05" height="1"/><rect class="cls-9" x="11.45" y="71.31" width="30.05" height="1"/><rect class="cls-9" x="11.45" y="75.03" width="16.24" height="1"/><path class="cls-14" d="M139.38,21H108.92a4.45,4.45,0,0,0-4.44,4.44v9.7a4.46,4.46,0,0,0,4.44,4.45H133l4,4a.78.78,0,0,0,.57.24.8.8,0,0,0,.3-.06.82.82,0,0,0,.5-.74V39.61h1a4.46,4.46,0,0,0,4.44-4.45v-9.7A4.45,4.45,0,0,0,139.38,21Z"/><rect class="cls-9" x="109.13" y="26.09" width="30.05" height="1"/><rect class="cls-9" x="109.13" y="29.81" width="30.05" height="1"/><rect class="cls-9" x="109.13" y="33.53" width="16.24" height="1"/><path class="cls-14" d="M133.3,48.24H81.49a4.46,4.46,0,0,0-4.44,4.44V65.16a4.46,4.46,0,0,0,4.44,4.44H83.9v4.25a.92.92,0,0,0,.58.86.85.85,0,0,0,.35.08,1,1,0,0,0,.67-.28l4.91-4.91H133.3a4.46,4.46,0,0,0,4.44-4.44V52.68A4.46,4.46,0,0,0,133.3,48.24Z"/><rect class="cls-9" x="84.99" y="54.09" width="44.81" height="1"/><rect class="cls-9" x="84.99" y="58.42" width="44.81" height="1"/><rect class="cls-9" x="84.99" y="62.75" width="23.37" height="1"/></g></g></svg>