<svg width="3000" height="2000" xmlns="http://www.w3.org/2000/svg" data-name="Layer 1">

 <g>
  <title>Layer 1</title>
  <rect id="svg_4" fill="#a9bae6" rx="74.32" height="1413.36" width="1030.33" y="383.32" x="944.08" class="cls-4"/>
  <rect id="svg_5" fill="#f6f5f5" height="1231.88" width="848.04" y="440.28" x="1037.2" class="cls-3"/>
  <path id="svg_6" fill="#e4e4e4" d="m1885.23,440.29c0.27,480.36 15.78,1059.71 -38.18,1188c-237.67,23.16 -516,30.59 -809.87,32l111.72,-1216.29l736.33,-3.71z" class="cls-5"/>
  <path id="svg_7" fill="#fff" d="m1809.06,1589.45c-370.44,59.29 -618,62.42 -818.82,47.51c26,-277 36.45,-737.18 46.94,-1196.62l446.39,1l404,26.67c5.89,476.84 6.53,917.31 -78.51,1121.44z" class="cls-1"/>
  <rect id="svg_8" transform="rotate(1.35 14.36 -34.05)" fill="#708cd5" height="67.97" width="446.24" y="525.08" x="1245.55" class="cls-6"/>
  <rect id="svg_9" transform="rotate(1.35 17.88 -36.56)" fill="#708cd5" height="31.11" width="402.51" y="689.38" x="1379.24" class="cls-6"/>
  <rect id="svg_10" transform="rotate(1.35 19.42 -34.99)" fill="#d3dfff" height="31.11" width="273.59" y="757.25" x="1379.2" class="cls-7"/>
  <rect id="svg_11" transform="rotate(1.35 18.36 -27.7)" stroke-width="6px" stroke="#708cd5" stroke-miterlimit="10" fill="#fff" height="95.29" width="95.29" y="691.22" x="1156.95" class="cls-8"/>
  <path id="svg_12" fill="#ee6f57" d="m1155.25,742.87c2.94,11.26 8.37,58.43 32,45.24c5.44,-3 10.06,-11.08 14.13,-15.71l22,-24.94l44,-49.9c3.75,-4.26 -12.82,-14.95 -17.54,-9.6l-39.06,44.35l-19.53,22.18c-4.52,5.13 -15,21.67 -21.67,23.14l10.94,3.53c2.57,2.11 -2.21,-12.87 -2.32,-13.28q-2.73,-10.43 -5.45,-20.87c-1.5,-5.74 -19.64,-12.65 -17.41,-4.14l-0.09,0z" class="cls-9"/>
  <rect id="svg_13" transform="rotate(1.35 21.92 -35.58)" fill="#708cd5" height="31.11" width="331.46" y="862.71" x="1379.21" class="cls-6"/>
  <rect id="svg_14" fill="#d3dfff" transform="matrix(1, 0.02, -0.02, 1, 23.55, -36.36)" height="31.11" width="402.51" y="966.94" x="1355.68" class="cls-7"/>
  <rect id="svg_15" transform="rotate(1.35 22.44 -27.55)" stroke-width="6px" stroke="#708cd5" stroke-miterlimit="10" fill="#fff" height="95.29" width="95.29" y="864.56" x="1156.95" class="cls-8"/>
  <path id="svg_16" fill="#ee6f57" d="m1151.11,918.75c2.94,11.26 8.37,58.43 32,45.24c5.45,-3 10.06,-11.08 14.13,-15.71q11,-12.46 22,-24.95l44,-49.89c3.75,-4.26 -12.82,-15 -17.54,-9.6l-39.06,44.35l-19.64,22.17c-4.52,5.13 -15,21.68 -21.67,23.15l10.94,3.53c2.57,2.11 -2.21,-12.87 -2.32,-13.28q-2.73,-10.43 -5.45,-20.87c-1.5,-5.74 -19.64,-12.65 -17.41,-4.14l0.02,0z" class="cls-9"/>
  <rect id="svg_17" transform="rotate(1.35 26.03 -36.27)" fill="#708cd5" height="31.11" width="402.51" y="1036.05" x="1379.23" class="cls-6"/>
  <rect id="svg_18" transform="rotate(1.35 27.53 -33.6)" fill="#d3dfff" height="31.11" width="180.01" y="1103.92" x="1379.17" class="cls-7"/>
  <rect id="svg_19" transform="rotate(1.35 26.51 -27.41)" stroke-width="6px" stroke="#708cd5" stroke-miterlimit="10" fill="#fff" height="95.29" width="95.29" y="1037.89" x="1156.94" class="cls-8"/>
  <path id="svg_20" fill="#ee6f57" d="m1148.32,1093.17c2.94,11.26 8.38,58.43 32,45.24c5.44,-3 10,-11.08 14.13,-15.71l22,-24.94l43.95,-49.9c3.75,-4.26 -12.83,-14.95 -17.54,-9.6l-39.06,44.35l-19.53,22.18c-4.52,5.13 -15,21.67 -21.67,23.14l10.93,3.53c2.58,2.11 -2.21,-12.87 -2.31,-13.28q-2.73,-10.42 -5.45,-20.87c-1.5,-5.74 -19.64,-12.65 -17.42,-4.14l-0.03,0z" class="cls-9"/>
  <rect id="svg_21" fill="#708cd5" transform="matrix(1, 0.02, -0.02, 1, 30.1, -36.13)" height="31.11" width="402.51" y="1245.51" x="1349.13" class="cls-6"/>
  <rect id="svg_22" transform="rotate(1.35 31.66 -35.08)" fill="#d3dfff" height="31.11" width="317.97" y="1277.25" x="1379.2" class="cls-7"/>
  <rect id="svg_23" transform="rotate(1.35 30.59 -27.27)" stroke-width="6px" stroke="#708cd5" stroke-miterlimit="10" fill="#fff" height="95.29" width="95.29" y="1211.22" x="1156.95" class="cls-8"/>
  <path id="svg_24" fill="#ee6f57" d="m1144.27,1265.23c2.94,11.26 8.38,58.42 32,45.23c5.44,-3 10.06,-11.08 14.13,-15.7l22,-25l44,-49.89c3.75,-4.26 -12.82,-15 -17.54,-9.6l-39.06,44.35l-19.53,22.17c-4.52,5.13 -15,21.68 -21.67,23.14l10.93,3.53c2.58,2.12 -2.21,-12.86 -2.31,-13.27q-2.73,-10.44 -5.45,-20.87c-1.5,-5.75 -19.64,-12.66 -17.42,-4.14l-0.08,0.05z" class="cls-9"/>
  <rect id="svg_25" transform="rotate(1.35 34.04 -33.13)" fill="#708cd5" height="31.11" width="159.55" y="1381.4" x="1379.16" class="cls-6"/>
  <path id="svg_26" fill="#d3dfff" d="m1746.31,1490l-402.4,-9.47l-0.73,31.1c155.68,3.65 353.91,10.94 394.35,4.74c6.14,-7.03 9.47,-15.6 8.78,-26.37z" class="cls-7"/>
  <rect id="svg_27" transform="rotate(1.35 34.63 -27.16)" stroke-width="6px" stroke="#708cd5" stroke-miterlimit="10" fill="#fff" height="95.29" width="95.29" y="1383.24" x="1158.27" class="cls-8"/>
  <path id="svg_28" fill="#ee6f57" d="m1140.26,1435.78c2.94,11.26 8.37,58.42 32,45.23c5.45,-3 10.06,-11.08 14.14,-15.7l22,-25l43.94,-49.89c3.76,-4.27 -12.82,-15 -17.53,-9.61l-39.06,44.35q-9.76,11.1 -19.54,22.18c-4.51,5.13 -15,21.67 -21.67,23.14l10.94,3.53c2.58,2.12 -2.21,-12.87 -2.32,-13.27q-2.71,-10.44 -5.45,-20.87c-1.5,-5.75 -19.63,-12.66 -17.41,-4.14l-0.04,0.05z" class="cls-9"/>
  <path id="svg_29" fill="#9399ff" d="m1650.24,391.88l0,95.12l-382,0l0,-95.12a54.88,54.88 0 0 1 16.08,-38.88a45.49,45.49 0 0 1 3.88,-3.48a54.52,54.52 0 0 1 35,-12.6a64.68,64.68 0 0 0 28.08,-6.4a67.27,67.27 0 0 0 10.56,-6.36a64.64,64.64 0 0 0 23.4,-33.16a64.91,64.91 0 0 1 62.08,-46l23.84,0a64.91,64.91 0 0 1 62.08,46a64.64,64.64 0 0 0 23.44,33.24a67.27,67.27 0 0 0 10.56,6.36a64.68,64.68 0 0 0 28.08,6.4a55,55 0 0 1 54.92,54.92l0,-0.04z" class="cls-10"/>
  <polygon id="svg_30" fill="#e4e4e4" points="1681.23 440.28 1681.23 510.96 1237.23 510.96 1237.23 440.28 1268.23 440.28 1268.23 486.96 1650.23 486.96 1650.23 440.28 1681.23 440.28" class="cls-5"/>
  <ellipse id="svg_31" fill="#fff" ry="32.2" rx="33.88" cy="301.95" cx="1459.24" class="cls-1"/>
 </g>
</svg>