<?xml version="1.0" standalone="no"?>
<!DOCTYPE svg PUBLIC "-//W3C//DTD SVG 20010904//EN"
 "http://www.w3.org/TR/2001/REC-SVG-20010904/DTD/svg10.dtd">
<svg version="1.0" xmlns="http://www.w3.org/2000/svg"
 width="21.000000pt" height="26.000000pt" viewBox="0 0 21.000000 26.000000"
 preserveAspectRatio="xMidYMid meet">

<g transform="translate(0.000000,26.000000) scale(0.100000,-0.100000)"
fill="#000000" stroke="none">
<path d="M79 173 c-67 -64 -80 -94 -54 -123 30 -33 61 -25 121 31 30 29 54 57
54 63 0 6 -26 -15 -58 -47 -64 -63 -95 -72 -114 -32 -10 22 -7 29 33 72 67 73
87 87 104 73 8 -7 15 -20 15 -30 0 -21 -106 -123 -120 -115 -18 11 -11 29 33
75 l42 45 -47 -45 c-50 -46 -60 -73 -31 -84 20 -8 133 99 133 125 0 19 -25 49
-41 49 -6 0 -37 -26 -70 -57z"/>
</g>
</svg>
